<?xml version="1.0" ?><svg height="60px" version="1.1" viewBox="0 0 40 60" width="40px" xmlns="http://www.w3.org/2000/svg" xmlns:xlink="http://www.w3.org/1999/xlink"><title/><desc/><defs/><g fill="none" fill-rule="evenodd" id="Page-1" stroke="none" stroke-width="1"><g fill-rule="nonzero" id="046---Temperature"><g id="Icons" transform="translate(1.000000, 1.000000)"><rect fill="#FFACAD" height="58" id="Rectangle-path" rx="4" width="37.902" x="0.098" y="0"/><path d="M30,43 C29.999782,48.2644722 26.2695526,52.7907789 21.1021018,53.7968204 C15.9346509,54.8028619 10.7787983,52.0065701 8.80359488,47.126689 C6.82839143,42.246808 8.58763314,36.6515303 13,33.78 L13,10 C13,6.6862915 15.6862915,4 19,4 C22.3116533,4.00495634 24.9950437,6.68834666 25,10 L25,33.78 C28.1205794,35.8082156 30.0023589,39.2782169 30,43 Z" fill="#FFFFFF" id="Shape"/><path d="M26,43 C25.9990752,46.6042995 23.2614059,49.6187323 19.6738451,49.965695 C16.0862843,50.3126577 12.8216884,47.8787201 12.1300781,44.3413976 C11.4384677,40.804075 13.5459462,37.3198 17,36.29 L17,26 L21,26 L21,36.29 C23.966272,37.1760901 25.9991472,39.9042086 26,43 Z" fill="#F96A59" id="Shape"/><path d="M21,10 L21,26 L17,26 L17,10 C17,8.8954305 17.8954305,8 19,8 C20.1045695,8 21,8.8954305 21,10 Z" fill="#735EFF" id="Shape"/></g><g fill="#000000" id="Layer_10"><path d="M35,0.5 L5.1,0.5 C2.61471863,0.5 0.6,2.51471863 0.6,5 L0.6,55 C0.6,57.4852814 2.61471863,59.5 5.1,59.5 L35,59.5 C37.4841391,59.4972444 39.4972444,57.4841391 39.5,55 L39.5,5 C39.4972444,2.51586091 37.4841391,0.502755564 35,0.5 Z M38.5,55 C38.5,56.9329966 36.9329966,58.5 35,58.5 L5.1,58.5 C3.16700338,58.5 1.6,56.9329966 1.6,55 L1.6,5 C1.6,3.06700338 3.16700338,1.5 5.1,1.5 L35,1.5 C36.9329966,1.5 38.5,3.06700338 38.5,5 L38.5,55 Z" id="Shape"/><path d="M26.5,34.513 L26.5,11 C26.4955921,7.41197652 23.5880235,4.5044079 20,4.5 C16.4119765,4.5044079 13.5044079,7.41197652 13.5,11 L13.5,34.513 C9.34171575,37.3620907 7.52350907,42.5870982 9.01481499,47.4021425 C10.5061209,52.2171869 14.9593011,55.499833 20,55.499833 C25.0406989,55.499833 29.4938791,52.2171869 30.985185,47.4021425 C32.4764909,42.5870982 30.6582842,37.3620907 26.5,34.513 Z M20,54.5 C15.3516546,54.4999994 11.2565223,51.4437012 9.93396921,46.9874732 C8.61141614,42.5312451 10.3762439,37.7357837 14.272,35.2 C14.414019,35.1079257 14.4998163,34.9502543 14.5,34.781 L14.5,11 C14.5038566,7.96403277 16.9640328,5.5038566 20,5.5 C23.0359672,5.5038566 25.4961434,7.96403277 25.5,11 L25.5,34.78 C25.5001837,34.9492543 25.585981,35.1069257 25.728,35.199 C29.6247216,37.7344435 31.3902773,42.5304864 30.0676098,46.987331 C28.7449423,51.4441757 24.648969,54.5006798 20,54.5 Z" id="Shape"/><path d="M22.5,36.931 L22.5,11 C22.5,9.61928813 21.3807119,8.5 20,8.5 C18.6192881,8.5 17.5,9.61928813 17.5,11 L17.5,36.931 C14.0561333,38.1485908 11.9903198,41.6701656 12.6080108,45.2703327 C13.2257018,48.8704997 16.3472277,51.5020678 20,51.5020678 C23.6527723,51.5020678 26.7742982,48.8704997 27.3919892,45.2703327 C28.0096802,41.6701656 25.9438667,38.1485908 22.5,36.931 Z M20,9.5 C20.8284271,9.5 21.5,10.1715729 21.5,11 L21.5,26.5 L18.5,26.5 L18.5,11 C18.5,10.1715729 19.1715729,9.5 20,9.5 Z M20,50.5 C16.7753044,50.4965368 14.0406735,48.1293925 13.5750871,44.9384831 C13.1095006,41.7475737 15.053738,38.6977345 18.143,37.773 C18.3547897,37.7097877 18.4999492,37.5150219 18.5,37.294 L18.5,27.5 L21.5,27.5 L21.5,37.294 C21.5000508,37.5150219 21.6452103,37.7097877 21.857,37.773 C24.946262,38.6977345 26.8904994,41.7475737 26.4249129,44.9384831 C25.9593265,48.1293925 23.2246956,50.4965368 20,50.5 Z" id="Shape"/><path d="M35,7.5 L30,7.5 C29.7238576,7.5 29.5,7.72385763 29.5,8 C29.5,8.27614237 29.7238576,8.5 30,8.5 L35,8.5 C35.2761424,8.5 35.5,8.27614237 35.5,8 C35.5,7.72385763 35.2761424,7.5 35,7.5 Z" id="Shape"/><path d="M35,19.5 L30,19.5 C29.7238576,19.5 29.5,19.7238576 29.5,20 C29.5,20.2761424 29.7238576,20.5 30,20.5 L35,20.5 C35.2761424,20.5 35.5,20.2761424 35.5,20 C35.5,19.7238576 35.2761424,19.5 35,19.5 Z" id="Shape"/><path d="M30,12.5 L32,12.5 C32.2761424,12.5 32.5,12.2761424 32.5,12 C32.5,11.7238576 32.2761424,11.5 32,11.5 L30,11.5 C29.7238576,11.5 29.5,11.7238576 29.5,12 C29.5,12.2761424 29.7238576,12.5 30,12.5 Z" id="Shape"/><path d="M30,16.5 L32,16.5 C32.2761424,16.5 32.5,16.2761424 32.5,16 C32.5,15.7238576 32.2761424,15.5 32,15.5 L30,15.5 C29.7238576,15.5 29.5,15.7238576 29.5,16 C29.5,16.2761424 29.7238576,16.5 30,16.5 Z" id="Shape"/><path d="M35,31.5 L30,31.5 C29.7238576,31.5 29.5,31.7238576 29.5,32 C29.5,32.2761424 29.7238576,32.5 30,32.5 L35,32.5 C35.2761424,32.5 35.5,32.2761424 35.5,32 C35.5,31.7238576 35.2761424,31.5 35,31.5 Z" id="Shape"/><path d="M30,24.5 L32,24.5 C32.2761424,24.5 32.5,24.2761424 32.5,24 C32.5,23.7238576 32.2761424,23.5 32,23.5 L30,23.5 C29.7238576,23.5 29.5,23.7238576 29.5,24 C29.5,24.2761424 29.7238576,24.5 30,24.5 Z" id="Shape"/><path d="M30,28.5 L32,28.5 C32.2761424,28.5 32.5,28.2761424 32.5,28 C32.5,27.7238576 32.2761424,27.5 32,27.5 L30,27.5 C29.7238576,27.5 29.5,27.7238576 29.5,28 C29.5,28.2761424 29.7238576,28.5 30,28.5 Z" id="Shape"/></g></g></g></svg>